<svg width="165" height="52" viewBox="0 0 165 52" fill="none" xmlns="http://www.w3.org/2000/svg">
<path d="M35.0903 19.328C35.0903 18 35.3623 16.824 35.9063 15.8C36.4663 14.776 37.2183 13.984 38.1623 13.424C39.1223 12.848 40.1783 12.56 41.3303 12.56C42.3703 12.56 43.2743 12.768 44.0423 13.184C44.8263 13.584 45.4503 14.088 45.9143 14.696V12.776H48.6743V26H45.9143V24.032C45.4503 24.656 44.8183 25.176 44.0183 25.592C43.2183 26.008 42.3063 26.216 41.2823 26.216C40.1463 26.216 39.1063 25.928 38.1623 25.352C37.2183 24.76 36.4663 23.944 35.9063 22.904C35.3623 21.848 35.0903 20.656 35.0903 19.328ZM45.9143 19.376C45.9143 18.464 45.7223 17.672 45.3383 17C44.9703 16.328 44.4823 15.816 43.8743 15.464C43.2663 15.112 42.6103 14.936 41.9063 14.936C41.2023 14.936 40.5463 15.112 39.9383 15.464C39.3303 15.8 38.8343 16.304 38.4503 16.976C38.0823 17.632 37.8983 18.416 37.8983 19.328C37.8983 20.24 38.0823 21.04 38.4503 21.728C38.8343 22.416 39.3303 22.944 39.9383 23.312C40.5623 23.664 41.2183 23.84 41.9063 23.84C42.6103 23.84 43.2663 23.664 43.8743 23.312C44.4823 22.96 44.9703 22.448 45.3383 21.776C45.7223 21.088 45.9143 20.288 45.9143 19.376ZM59.18 19.4L65.276 26H61.58L56.684 20.312V26H53.948V8.24H56.684V18.56L61.484 12.776H65.276L59.18 19.4ZM73.717 26.216C72.677 26.216 71.741 26.032 70.909 25.664C70.093 25.28 69.445 24.768 68.965 24.128C68.485 23.472 68.229 22.744 68.197 21.944H71.029C71.077 22.504 71.341 22.976 71.821 23.36C72.317 23.728 72.933 23.912 73.669 23.912C74.437 23.912 75.029 23.768 75.445 23.48C75.877 23.176 76.093 22.792 76.093 22.328C76.093 21.832 75.853 21.464 75.373 21.224C74.909 20.984 74.165 20.72 73.141 20.432C72.149 20.16 71.341 19.896 70.717 19.64C70.093 19.384 69.549 18.992 69.085 18.464C68.637 17.936 68.413 17.24 68.413 16.376C68.413 15.672 68.621 15.032 69.037 14.456C69.453 13.864 70.045 13.4 70.813 13.064C71.597 12.728 72.493 12.56 73.501 12.56C75.005 12.56 76.213 12.944 77.125 13.712C78.053 14.464 78.549 15.496 78.613 16.808H75.877C75.829 16.216 75.589 15.744 75.157 15.392C74.725 15.04 74.141 14.864 73.405 14.864C72.685 14.864 72.133 15 71.749 15.272C71.365 15.544 71.173 15.904 71.173 16.352C71.173 16.704 71.301 17 71.557 17.24C71.813 17.48 72.125 17.672 72.493 17.816C72.861 17.944 73.405 18.112 74.125 18.32C75.085 18.576 75.869 18.84 76.477 19.112C77.101 19.368 77.637 19.752 78.085 20.264C78.533 20.776 78.765 21.456 78.781 22.304C78.781 23.056 78.573 23.728 78.157 24.32C77.741 24.912 77.149 25.376 76.381 25.712C75.629 26.048 74.741 26.216 73.717 26.216ZM90.2573 12.56C91.2653 12.56 92.1613 12.776 92.9453 13.208C93.7453 13.64 94.3693 14.28 94.8173 15.128C95.2813 15.976 95.5133 17 95.5133 18.2V26H92.8013V18.608C92.8013 17.424 92.5053 16.52 91.9133 15.896C91.3213 15.256 90.5133 14.936 89.4893 14.936C88.4653 14.936 87.6493 15.256 87.0413 15.896C86.4493 16.52 86.1533 17.424 86.1533 18.608V26H83.4173V8.24H86.1533V14.312C86.6173 13.752 87.2013 13.32 87.9053 13.016C88.6253 12.712 89.4093 12.56 90.2573 12.56ZM99.7713 19.328C99.7713 18 100.043 16.824 100.587 15.8C101.147 14.776 101.899 13.984 102.843 13.424C103.803 12.848 104.859 12.56 106.011 12.56C107.051 12.56 107.955 12.768 108.723 13.184C109.507 13.584 110.131 14.088 110.595 14.696V12.776H113.355V26H110.595V24.032C110.131 24.656 109.499 25.176 108.699 25.592C107.899 26.008 106.987 26.216 105.963 26.216C104.827 26.216 103.787 25.928 102.843 25.352C101.899 24.76 101.147 23.944 100.587 22.904C100.043 21.848 99.7713 20.656 99.7713 19.328ZM110.595 19.376C110.595 18.464 110.403 17.672 110.019 17C109.651 16.328 109.163 15.816 108.555 15.464C107.947 15.112 107.291 14.936 106.587 14.936C105.883 14.936 105.227 15.112 104.619 15.464C104.011 15.8 103.515 16.304 103.131 16.976C102.763 17.632 102.579 18.416 102.579 19.328C102.579 20.24 102.763 21.04 103.131 21.728C103.515 22.416 104.011 22.944 104.619 23.312C105.243 23.664 105.899 23.84 106.587 23.84C107.291 23.84 107.947 23.664 108.555 23.312C109.163 22.96 109.651 22.448 110.019 21.776C110.403 21.088 110.595 20.288 110.595 19.376ZM130.533 12.776L122.421 32.216H119.589L122.277 25.784L117.069 12.776H120.117L123.837 22.856L127.701 12.776H130.533Z" fill="white"/>
<path d="M5.7511 47.216V37.28H7.3891V35.642H12.4651V37.28H14.1211V42.32H12.4651V43.958H7.5691V47.216H5.7511ZM7.5691 42.14H12.2851V37.46H7.5691V42.14ZM21.338 47.216V45.416H22.976V37.46H21.338V35.642H26.432V37.46H24.776V45.416H26.432V47.216H21.338ZM33.6553 47.216V45.416H35.2933V42.14H36.9133V40.7H35.2933V37.46H33.6553V35.642H35.4733V37.28H37.0933V40.538H38.5693V37.28H40.1893V35.642H42.0253V37.46H40.3693V40.7H38.7493V42.14H40.3693V45.416H42.0253V47.216H40.1893V45.596H38.5693V42.32H37.0933V45.596H35.4733V47.216H33.6553ZM50.3353 47.216V45.596H48.6973V37.28H50.3353V35.642H55.4113V37.28H57.0673V39.08H55.2313V37.46H50.5153V40.538H53.7913V42.32H50.5153V45.416H55.2313V43.778H57.0673V45.596H55.4113V47.216H50.3353ZM65.9221 47.216V45.596H64.2841V35.642H66.1021V45.416H70.8181V43.778H72.6541V45.596H70.9981V47.216H65.9221ZM90.1525 47.216V45.596H88.5145V37.28H90.1525V35.642H95.2285V37.28H96.8845V40.7H95.0485V37.46H90.3325V45.416H95.0485V42.14H96.8845V45.596H95.2285V47.216H90.1525ZM104.101 47.216V37.28H105.739V35.642H110.815V37.28H112.471V42.32H110.815V43.958H110.023V45.416H111.643V47.216H109.843V45.596H108.187V43.958H105.919V47.216H104.101ZM105.919 42.14H110.635V37.46H105.919V42.14ZM119.688 47.216V38.9H121.326V37.28H122.946V35.642H124.782V37.28H126.402V38.9H128.058V47.216H126.222V43.958H121.506V47.216H119.688ZM121.506 42.14H126.222V39.08H124.602V37.46H123.126V39.08H121.506V42.14ZM135.275 47.216V35.642H141.989V37.28H143.645V39.08H141.809V37.46H137.093V40.538H140.369V42.32H137.093V47.216H135.275ZM154.12 47.216V37.46H152.68V39.08H150.862V37.28H152.5V35.642H157.576V37.28H159.232V39.08H157.396V37.46H155.956V47.216H154.12Z" fill="url(#paint0_linear_253_60)"/>
<defs>
<linearGradient id="paint0_linear_253_60" x1="0" y1="41" x2="165" y2="41" gradientUnits="userSpaceOnUse">
<stop stop-color="#693B93"/>
<stop offset="0.77" stop-color="#6EBFF4" stop-opacity="0.44"/>
</linearGradient>
</defs>
</svg>
